<svg width="179" height="154" fill="none" xmlns="http://www.w3.org/2000/svg"><path d="M109.977 76.837l-19.482-35.42-5.476 9.262 14.386 26.153 5.304 9.633 1.666 3.035h10.572l-6.762-12.296-.208-.367z" fill="#000"/><path d="M74.148 69.064l-4.591 7.764 8.862.004h5.983L77.25 63.82l-7.233-13.14 21.017-35.544 7.232 13.14 19.689 35.786 7.025 12.774 6.967 12.664H179C179 40.07 138.93 0 89.5 0S0 40.07 0 89.5h47.062l19.854-33.577 7.232 13.14zM35.31 120.005c2.732 1.753 5.957 2.525 7.954 2.525 2.032 0 3.54-.807 3.54-2.7 0-2.347-2.384-2.557-5.643-3.609-3.504-1.156-6.658-2.873-6.658-7.289 0-4.73 3.575-7.674 8.9-7.674 2.49 0 5.538.63 7.745 1.823v5.501c-2.698-1.682-5.817-2.453-7.779-2.453-1.892 0-3.259.701-3.259 2.383 0 2.243 2.348 2.418 5.397 3.434 3.82 1.262 6.904 3.049 6.904 7.534 0 4.942-3.75 7.92-9.217 7.92-2.523 0-5.571-.631-7.884-1.788v-5.607zm26.735-13.491h-8.2v-4.871h21.972v4.871h-8.2v20.501h-5.572v-20.501zm21.691-4.871h5.397l10.302 25.372H93.48l-2.033-5.328H81.213l-2.068 5.328h-5.711l10.302-25.372zm-.806 15.665h6.834l-1.051-2.839a368.53 368.53 0 01-2.313-6.448h-.07a272.275 272.275 0 01-2.383 6.588l-1.017 2.699zm18.923-15.665h5.571v9.812h10.969v-9.812h5.571v25.372h-5.571v-10.689h-10.969v10.689h-5.571v-25.372zm26.735 0h5.572v20.501h11.109v4.871h-16.681v-25.372zM1.81 135.645h4.7c2.035 0 3.61.242 4.846 1.042 1.187.775 2.035 2.035 2.035 3.779 0 1.599-.727 2.908-1.842 3.707-.8.581-1.744.873-2.834 1.042l5.863 7.97h-1.793l-5.718-7.849h-3.78v7.849H1.81v-17.54zm5.16 8.431c1.817 0 2.98-.315 3.828-1.018.751-.63 1.115-1.477 1.115-2.519 0-1.284-.557-2.156-1.43-2.738-.945-.629-2.108-.799-4.07-.799H3.288v7.074H6.97zm18.125-8.697c5.04 0 8.844 3.973 8.844 9.037 0 5.063-3.804 9.037-8.844 9.037-5.039 0-8.843-3.974-8.843-9.037 0-5.064 3.805-9.037 8.843-9.037zm0 16.693c4.265 0 7.366-3.392 7.366-7.656 0-4.264-3.101-7.657-7.366-7.657-4.264 0-7.365 3.393-7.365 7.657s3.101 7.656 7.365 7.656zm19.968-16.693c5.04 0 8.844 3.973 8.844 9.037 0 5.063-3.804 9.037-8.844 9.037-5.039 0-8.843-3.974-8.843-9.037 0-5.064 3.805-9.037 8.843-9.037zm0 16.693c4.265 0 7.366-3.392 7.366-7.656 0-4.264-3.101-7.657-7.366-7.657-4.264 0-7.365 3.393-7.365 7.657s3.101 7.656 7.365 7.656zm12.167-16.427h9.957v1.357h-8.48v6.735h7.535v1.358h-7.535v8.091H57.23v-17.541zm18.876 14.706c1.527 1.187 3.514 1.721 5.137 1.721 2.35 0 4.07-1.139 4.07-3.417 0-2.592-2.253-3.149-4.53-3.779-2.52-.703-4.991-1.623-4.991-4.797 0-3.005 2.18-4.7 5.354-4.7 1.647 0 3.562.46 4.918 1.38v1.599c-1.478-1.066-3.367-1.599-4.942-1.599-2.278 0-3.852 1.091-3.852 3.223 0 2.495 2.205 3.003 4.385 3.609 2.496.702 5.136 1.623 5.136 4.991 0 3.077-2.252 4.87-5.548 4.87-1.744 0-3.73-.509-5.136-1.454v-1.647zm25.393-14.706h1.672l-6.76 9.594v7.946h-1.477v-7.922l-6.784-9.618h1.72l2.81 3.998a342.051 342.051 0 012.981 4.288h.048a478.018 478.018 0 012.98-4.288l2.81-3.998zm3.372 14.706c1.526 1.187 3.513 1.721 5.136 1.721 2.35 0 4.07-1.139 4.07-3.417 0-2.592-2.252-3.149-4.53-3.779-2.52-.703-4.991-1.623-4.991-4.797 0-3.005 2.18-4.7 5.354-4.7 1.647 0 3.562.46 4.919 1.38v1.599c-1.479-1.066-3.368-1.599-4.943-1.599-2.277 0-3.852 1.091-3.852 3.223 0 2.495 2.205 3.003 4.385 3.609 2.495.702 5.136 1.623 5.136 4.991 0 3.077-2.253 4.87-5.548 4.87-1.744 0-3.731-.509-5.136-1.454v-1.647zm18.513-13.349h-6.033v-1.357h13.543v1.357h-6.032v16.183h-1.478v-16.183zm10.42-1.357h9.715v1.357h-8.237v6.396h7.292v1.357h-7.292v7.074h8.455v1.357h-9.933v-17.541zm17.447 6.299a517.506 517.506 0 01-2.617-3.804l-.048.024c.024 1.406.024 2.956.024 4.482v10.539h-1.429v-17.54h1.429l6.808 9.788 6.808-9.788h1.43v17.54h-1.479v-10.539c0-1.526 0-3.076.025-4.482l-.049-.024a539.64 539.64 0 01-2.617 3.805l-4.143 5.959-4.142-5.96zm16.26 8.407c1.527 1.187 3.514 1.721 5.136 1.721 2.351 0 4.071-1.139 4.071-3.417 0-2.592-2.253-3.149-4.53-3.779-2.52-.703-4.991-1.623-4.991-4.797 0-3.005 2.18-4.7 5.354-4.7 1.647 0 3.561.46 4.919 1.38v1.599c-1.479-1.066-3.369-1.599-4.943-1.599-2.278 0-3.852 1.091-3.852 3.223 0 2.495 2.204 3.003 4.384 3.609 2.496.702 5.136 1.623 5.136 4.991 0 3.077-2.252 4.87-5.548 4.87-1.744 0-3.73-.509-5.136-1.454v-1.647z" fill="#000"/></svg>