<svg width="14" height="14" fill="none" xmlns="http://www.w3.org/2000/svg"><path d="M13.547 4.93l-4.196-.64L7.474.308a.52.52 0 00-.949 0L4.65 4.291.453 4.93a.52.52 0 00-.303.16.569.569 0 00.01.785l3.037 3.1-.718 4.378a.577.577 0 00.031.302.55.55 0 00.18.24.514.514 0 00.556.041L7 11.869l3.754 2.067a.504.504 0 00.335.055.551.551 0 00.432-.638l-.717-4.378 3.036-3.1a.563.563 0 00.154-.317.549.549 0 00-.447-.628zM9.526 8.539l.597 3.64L7 10.462l-3.122 1.719.596-3.64L1.95 5.96l3.49-.531L7 2.119 8.56 5.43l3.492.531L9.526 8.54z" fill="#F5F6F7"/></svg>