<svg width="18" height="14" fill="none" xmlns="http://www.w3.org/2000/svg"><path d="M8.761 3.632l-5.76 4.746V13.5a.5.5 0 00.5.5l3.5-.01a.5.5 0 00.498-.5V10.5A.5.5 0 018 10h2a.5.5 0 01.5.5v2.989a.5.5 0 00.5.501l3.5.01a.5.5 0 00.5-.5V8.374L9.24 3.632a.38.38 0 00-.478 0zm9.1 3.226L15.25 4.704V.375A.375.375 0 0014.874 0h-1.75a.375.375 0 00-.375.375v2.27L9.952.341a1.5 1.5 0 00-1.906 0L.136 6.858a.375.375 0 00-.05.528l.797.969a.375.375 0 00.528.05l7.35-6.054a.38.38 0 01.478 0l7.35 6.055a.375.375 0 00.529-.05l.797-.97a.374.374 0 00-.053-.528z" fill="#CBCBCB"/></svg>