<svg width="17" height="12" fill="none" xmlns="http://www.w3.org/2000/svg"><path d="M17 10.5v-9c0-.83-.67-1.5-1.5-1.5h-14C.67 0 0 .67 0 1.5v9c0 .83.67 1.5 1.5 1.5h14c.83 0 1.5-.67 1.5-1.5zm-1.31-9.11c.33.33.15.67-.03.84l-4.057 3.72 3.898 4.06c.12.14.2.36.06.51-.13.16-.43.15-.56.05l-4.367-3.73-2.139 1.95-2.129-1.95L2 10.57c-.13.1-.43.11-.56-.05-.14-.15-.06-.37.06-.51l3.898-4.06L1.34 2.23c-.18-.17-.36-.51-.03-.84.33-.33.67-.17.95.07L8.495 6.5l6.246-5.04c.28-.24.62-.4.95-.07z" fill="#CBCBCB"/></svg>