<svg width="10" height="9" fill="none" xmlns="http://www.w3.org/2000/svg"><path fill-rule="evenodd" clip-rule="evenodd" d="M5.182.189A.624.624 0 015.625 0a.61.61 0 01.442.189l3.75 3.856a.644.644 0 01.184.455.659.659 0 01-.184.455l-3.75 3.857a.617.617 0 01-.885 0 .653.653 0 010-.91L8.491 4.5 5.182 1.1A.644.644 0 015 .644a.659.659 0 01.183-.455z" fill="#fff"/><path fill-rule="evenodd" clip-rule="evenodd" d="M0 4.5c0-.17.066-.334.183-.454a.616.616 0 01.442-.189H8.75c.166 0 .325.068.442.189a.652.652 0 010 .909.616.616 0 01-.442.188H.625a.616.616 0 01-.442-.188A.652.652 0 010 4.5z" fill="#fff"/></svg>