<svg width="10" height="9" fill="none" xmlns="http://www.w3.org/2000/svg"><path fill-rule="evenodd" clip-rule="evenodd" d="M4.819 8.811A.624.624 0 014.376 9a.61.61 0 01-.442-.189L.184 4.955A.644.644 0 010 4.5a.659.659 0 01.184-.455L3.934.188a.617.617 0 01.885 0 .653.653 0 010 .91L1.509 4.5 4.82 7.9a.644.644 0 01.183.455.659.659 0 01-.183.455z" fill="#fff"/><path fill-rule="evenodd" clip-rule="evenodd" d="M10 4.5a.65.65 0 01-.182.454.616.616 0 01-.442.189H1.25a.616.616 0 01-.442-.189.652.652 0 010-.909.616.616 0 01.442-.188h8.125c.166 0 .325.068.442.188.117.12.183.284.183.455z" fill="#fff"/></svg>